<svg style="background-color: #eee" xmlns="http://www.w3.org/2000/svg" viewBox="0 0 1098.54 707.29"><defs><style>.cls-1{fill:#f9f8f2;}</style></defs><title>資產 8</title><g id="圖層_2" data-name="圖層 2"><g id="圖層_1-2" data-name="圖層 1"><path class="cls-1" d="M0,352.64A547.08,547.08,0,0,0,129.82,707.29h838.9A549.32,549.32,0,0,0,970.4,0H128.15A547,547,0,0,0,0,352.64Z"/><path d="M244.21,300.72c-4,4.2-10.29,6.3-19.11,6.3q-18.27,0-18.27-22.68c0-6.3,1-14.8,3.36-25.72a187,187,0,0,1,7-25.52c1.36-3.78,2.94-5.77,4.72-5.77a2.72,2.72,0,0,1,3.05,3,58.7,58.7,0,0,1-2.1,7.56c-6.3,20.16-9.45,35.6-9.45,46.1,0,5.88.84,10,2.62,12.39s4.73,3.46,9.24,3.46a29.79,29.79,0,0,0,14.28-4,3.17,3.17,0,0,1,3.25-2.62c2.11,0,3.15,1.05,3.15,3A6,6,0,0,1,244.21,300.72Z"/><path d="M290.09,282.56a41.56,41.56,0,0,0-2.31,14,21.72,21.72,0,0,0,.53,5.25c.63,3.15,1.05,4.73,1.05,4.94,0,2-1.16,3-3.36,3s-3.26-1.78-3.57-5.14c-.21-1.79-.53-4.62-.95-8.51q-8.66,10.39-16.69,10.4a8.67,8.67,0,0,1-7.25-4,12,12,0,0,1-2.93-8.09c0-4.83,2.09-9.87,6.5-15.33a55.89,55.89,0,0,1,4.62-4.83c6.93-6.3,12.71-9.45,17.54-9.45a6.06,6.06,0,0,1,3.36,1.37,4.3,4.3,0,0,1,1.68,3.15,7.54,7.54,0,0,1-.32,1.47,19.2,19.2,0,0,1,1.26,7.14,4.77,4.77,0,0,1,1.26,2.73A10.65,10.65,0,0,1,290.09,282.56Zm-9.55-10.4c-1.37,0-3.57,1.16-6.51,3.36a37.68,37.68,0,0,0-6.62,6c-4.41,4.93-6.51,9.13-6.51,12.6,0,3.67,1.37,5.46,4.31,5.46,4,0,7.87-2.42,11.86-7.46s6.09-9.76,6.09-14.38C283.16,274.05,282.22,272.16,280.54,272.16Z"/><path d="M334.72,271.43a11.54,11.54,0,0,1-4.31,1.26,13.59,13.59,0,0,1-2.1-.63c-9,4.2-14.49,12.91-16.17,26.35-.94,7-2.1,10.61-3.46,10.61-1.16,0-2.1-.74-2.94-2a6.58,6.58,0,0,1-1.26-3.88c.21-1.05.63-2.84,1.15-5.46a53.65,53.65,0,0,0,.84-8.82,45.19,45.19,0,0,0-1.05-9.14,7.29,7.29,0,0,1-2.1-4.2,39.13,39.13,0,0,1-.73-6.82,4.24,4.24,0,0,1,.73-2.21c.42-.84.84-1.26,1.37-1.26,2.31,0,3.88,2,4.72,5.78.84,4,1.47,6.93,1.89,9a36.59,36.59,0,0,1,10-12q6-4.72,12.28-4.73a4.55,4.55,0,0,1,3.15,1.58,6.24,6.24,0,0,1,1.37,3.36C338.08,269.43,336.92,270.48,334.72,271.43Z"/><path d="M377.77,282.56a41.31,41.31,0,0,0-2.31,14,21.71,21.71,0,0,0,.52,5.25c.63,3.15,1,4.73,1,4.94,0,2-1.15,3-3.36,3s-3.25-1.78-3.57-5.14c-.21-1.79-.52-4.62-.94-8.51q-8.67,10.39-16.7,10.4a8.65,8.65,0,0,1-7.24-4,12,12,0,0,1-2.94-8.09c0-4.83,2.1-9.87,6.51-15.33a54.34,54.34,0,0,1,4.62-4.83c6.93-6.3,12.7-9.45,17.53-9.45a6,6,0,0,1,3.36,1.37,4.3,4.3,0,0,1,1.68,3.15,7.23,7.23,0,0,1-.31,1.47,19.2,19.2,0,0,1,1.26,7.14,4.77,4.77,0,0,1,1.26,2.73A10.65,10.65,0,0,1,377.77,282.56Zm-9.56-10.4c-1.36,0-3.57,1.16-6.51,3.36a37.59,37.59,0,0,0-6.61,6c-4.41,4.93-6.51,9.13-6.51,12.6,0,3.67,1.36,5.46,4.3,5.46,4,0,7.88-2.42,11.87-7.46s6.09-9.76,6.09-14.38C370.84,274.05,369.89,272.16,368.21,272.16Z"/><path d="M428.48,270.69c-.42.63-1.89,2.21-4.2,4.83-9.45,10.4-16.27,20-20.68,28.56-1.58,3.05-2.94,4.62-4.2,4.62-2,0-3.47-1.78-4.41-5.14a151.16,151.16,0,0,1-4.83-23.84c-.84-6.3-1.26-10-1.26-10.81a3.25,3.25,0,0,1,.94-2.31,3,3,0,0,1,2.1-1c1.26,0,2.21,1,3.05,2.63.31,2.41.73,5.25,1.15,8.5.84,6.3,2,13.23,3.36,20.79,5.15-8.4,13.34-19,24.67-32,.11-2.84,1.16-4.31,3.15-4.31a3.21,3.21,0,0,1,3.57,3.57C430.89,266.7,430.05,268.59,428.48,270.69Z"/><path d="M467.43,308.6q-12.29,0-17.63-11.66a12.61,12.61,0,0,1-2.94.32c-3.68,0-6.62-.63-8.72-2-2.62-1.47-3.88-3-3.88-4.72q0-3.46,3.15-3.47a12,12,0,0,1,3.15,1.89,9.66,9.66,0,0,0,5.35,1.68,13.4,13.4,0,0,0,2-.1,25.38,25.38,0,0,1-.42-4.83,30.94,30.94,0,0,1,3.78-14.7c2.83-5.36,6.4-8.09,10.7-8.09,2.63,0,5.25,1.47,8,4.2a10.63,10.63,0,0,1,2.94,7.25c0,4.2-1.78,8.19-5.25,12.18a31.59,31.59,0,0,1-11.65,8.5c2.1,4.41,5.35,6.62,10,6.62a21.76,21.76,0,0,0,4.41-.53c1.89-.21,3.05-.31,3.57-.31A2.71,2.71,0,0,1,476,302a3.94,3.94,0,0,1,.95,2.42C477,307.13,473.73,308.6,467.43,308.6ZM465,271.43a5.55,5.55,0,0,0-3.47-1.47c-2.1,0-3.88,1.68-5.35,4.83a23.3,23.3,0,0,0-2.2,9.87,30.47,30.47,0,0,0,.31,4.2,25.6,25.6,0,0,0,8.71-6.09,11.05,11.05,0,0,0,3.68-7.88A4.94,4.94,0,0,0,465,271.43Z"/><path d="M500.19,237.72l-.73.63a135.67,135.67,0,0,0-3,17.64,149.4,149.4,0,0,0-1.47,19.74,270.08,270.08,0,0,0,1.47,32,1.39,1.39,0,0,1-1.57,1.57c-1.47,0-2.94-1.26-4.41-3.57a10.51,10.51,0,0,1-2.1-5.67c0-.42-.11-1.57-.11-3.67s-.1-3.15-.1-3.57a7.35,7.35,0,0,1,.94-3.89c-.42-4.2-.52-9.76-.52-16.59,0-13.33,2.2-27.72,6.82-43.15.42-1.37.95-2.1,1.79-2.1,1.05,0,2.31.73,4,2.2s2.41,2.94,2.41,4.2C503.55,235.2,502.4,236.67,500.19,237.72Z"/><path d="M290.51,443.94a4.56,4.56,0,0,1-3.36-1.68c-6.09-7.66-10.29-22.26-12.49-43.89l-2.84-25.09c-2.31,5.14-5.46,14.28-9.66,27.3-1.05,3.25-1.78,6-2.31,8.08-.31,1.37-.63,2.63-.94,3.89a2.8,2.8,0,0,1-2.73,1.89c-3.57,0-8.61-6.51-14.91-19.74-3.36-6.72-6.4-15.44-8.92-26.15a116.1,116.1,0,0,0-5.78,23.52,221.7,221.7,0,0,0-1.36,27.72c0,4.41-1.26,6.51-3.57,6.51-3,0-4.52-5.25-4.52-16a151.23,151.23,0,0,1,1.16-15.64,146.48,146.48,0,0,0,.94-14.91c0-.74-.1-1.79-.1-3.26S219,374,219,373.17c0-2.1,1-3.15,2.84-3.15a3.8,3.8,0,0,1,2.94,1.58c2.2-6.83,4.09-11.24,5.77-13.34a3.24,3.24,0,0,1,2.84-1.47c1.68,0,2.94,2,3.88,6,4.62,19.74,10.29,33.81,17.11,42.21a288.75,288.75,0,0,1,13.23-36.65c1.68-3.67,3.26-5.56,4.73-5.56,2.52,0,4.3,3.36,5.25,10.08.63,4.83,1.57,11.23,2.62,19.42,1.26,11.45,2.21,18.27,2.63,20.48,1.36,8.19,3.36,14.59,6,19.32,1.47.42,2.52,1.68,3.36,3.67a18.72,18.72,0,0,0,1.05,2.31,8.67,8.67,0,0,1,.74,2.21C293.56,442.68,292.4,443.94,290.51,443.94Z"/><path d="M345.22,418.22c-.31.84-.73,2.1-1.36,3.78a17.4,17.4,0,0,1-5.88,7.66c-2.94,2.31-5.67,3.57-8.4,3.57a12.36,12.36,0,0,1-10.71-5.88A19.68,19.68,0,0,1,315,415.07a28.46,28.46,0,0,1,3.15-12.81c2.21-4.52,5-7.67,8.61-9.56a12.07,12.07,0,0,0,4.1-2.94,6.42,6.42,0,0,1,1.47-.21,13,13,0,0,1,2.31.63,18.57,18.57,0,0,1,8.82,7,19.69,19.69,0,0,1,3.36,10.92A27.46,27.46,0,0,1,345.22,418.22Zm-8.71-18.69a8.27,8.27,0,0,1-4.2-1c-3.68.21-6.51,2.1-8.61,5.67a21.77,21.77,0,0,0-2.63,10.92,12.89,12.89,0,0,0,2.31,8,7,7,0,0,0,6.09,3.36c2.73,0,5.25-2,7.77-6a20.11,20.11,0,0,0,3.47-10.71C340.71,404.78,339.24,401.42,336.51,399.53Z"/><path d="M393.2,363.93a84,84,0,0,0-1.36,10.4,25.55,25.55,0,0,0-.21,4.41,9.19,9.19,0,0,1-1.89,5.88c-.94,11.86-1.36,19.74-1.36,23.52a146.52,146.52,0,0,0,2.52,27.51,29,29,0,0,1,.63,5.14,2.76,2.76,0,0,1-.95,2,3.62,3.62,0,0,1-2.1,1c-1.68,0-2.73-1.58-3.15-4.52a164.9,164.9,0,0,1-2.2-18.79,32.14,32.14,0,0,1-6.72,9.13c-3.36,3.26-6.62,4.94-9.77,4.94a9.81,9.81,0,0,1-7.87-3.26c-1.89-2.1-2.73-4.93-2.73-8.5,0-5.67,2.41-11.87,7.24-18.69S372.42,394,376.41,394c2.1,0,4.3,1.37,6.61,3.89,1.37-19.32,3.26-33.39,5.57-42.11.42-1.68,1.36-2.62,2.83-2.62,1.78,0,2.73,1.05,2.73,3.15C394.15,357.11,393.83,359.63,393.2,363.93Zm-15.53,37.28c-.84-.11-1.26-.21-1.47-.21-2.42,0-5.46,2.62-9,7.77-3.78,5.35-5.57,10-5.57,13.86,0,3.46,1.26,5.14,4,5.14,3.47,0,6.93-2.1,10.29-6.3a35.51,35.51,0,0,0,6.62-13.54A10.78,10.78,0,0,1,377.67,401.21Z"/><path d="M433.94,434.6q-12.29,0-17.64-11.66a12.49,12.49,0,0,1-2.94.32c-3.67,0-6.61-.63-8.71-2-2.62-1.47-3.88-3-3.88-4.72q0-3.46,3.15-3.47a12,12,0,0,1,3.15,1.89,9.66,9.66,0,0,0,5.35,1.68,13.4,13.4,0,0,0,2-.1,25.38,25.38,0,0,1-.42-4.83,30.94,30.94,0,0,1,3.78-14.7c2.83-5.36,6.4-8.09,10.7-8.09,2.63,0,5.25,1.47,8,4.2a10.63,10.63,0,0,1,2.94,7.25c0,4.2-1.78,8.19-5.25,12.18a31.59,31.59,0,0,1-11.65,8.5c2.1,4.41,5.35,6.62,10,6.62a21.76,21.76,0,0,0,4.41-.53c1.89-.21,3.05-.31,3.57-.31a2.71,2.71,0,0,1,2.1,1.15,3.94,3.94,0,0,1,.95,2.42C443.5,433.13,440.24,434.6,433.94,434.6Zm-2.41-37.17a5.55,5.55,0,0,0-3.47-1.47c-2.1,0-3.88,1.68-5.35,4.83a23.3,23.3,0,0,0-2.2,9.87,30.47,30.47,0,0,0,.31,4.2,25.6,25.6,0,0,0,8.71-6.09,11.05,11.05,0,0,0,3.68-7.88A4.94,4.94,0,0,0,431.53,397.43Z"/><path d="M466.7,363.72l-.73.63A135.67,135.67,0,0,0,462.92,382a149.4,149.4,0,0,0-1.47,19.74,270.08,270.08,0,0,0,1.47,32,1.39,1.39,0,0,1-1.57,1.57c-1.47,0-2.94-1.26-4.41-3.57a10.51,10.51,0,0,1-2.1-5.67c0-.42-.11-1.57-.11-3.67s-.1-3.15-.1-3.57a7.35,7.35,0,0,1,.94-3.89c-.42-4.2-.52-9.76-.52-16.59,0-13.33,2.2-27.72,6.82-43.15.42-1.37.95-2.1,1.79-2.1,1,0,2.31.73,4,2.2s2.41,2.94,2.41,4.2C470.06,361.2,468.91,362.67,466.7,363.72Z"/><path d="M560.47,343.88a2.7,2.7,0,0,1,.94,2.2,5.09,5.09,0,0,1-.63,2.21,19,19,0,0,1,3.78,2.41c5,3.36,12.92,8.4,23.63,15.33,5.46,3.57,10,6.41,13.33,8.61,1.16.84,2.1,1.58,2.94,2.21a6.71,6.71,0,0,1,.84,1.89c0,1.68-.73,2.41-2.1,2.41a1.93,1.93,0,0,1-.84-.21,74.48,74.48,0,0,1-9.45-5.35l-16.17-9.87c-5.25-3.15-10.71-6.83-16.48-11a14.33,14.33,0,0,1-2.1-1.47c-1.58,2.73-3.36,5.67-5.36,8.61a211.41,211.41,0,0,1-13.12,17.64,3.57,3.57,0,0,1,1.26-.42c5-1.36,10.08-2.94,14.91-4.72a150.73,150.73,0,0,0,16.27-6.72,1.41,1.41,0,0,1,1.37.84c0,.21.1.42.1.63a2.92,2.92,0,0,1-.94,2c-2,2.31-7.25,5.15-15.86,8.4q-6.93,2.52-13.23,4.73c-1.26.31-2.1.52-2.62.63a13.44,13.44,0,0,1-2.73.21,2.2,2.2,0,0,1-2-1.47c-3.36,4-6.93,7.87-10.6,11.65-2.94,2.94-5.46,5.36-7.67,7.25a2.89,2.89,0,0,1-1.89,1,1.61,1.61,0,0,1-1.78-1.79,3,3,0,0,1,.94-2.2q16.86-15.91,35.91-45.15c2-3.15,3.78-6.09,5.25-8.82.63-1.58,1.37-2.42,2.42-2.42A2.72,2.72,0,0,1,560.47,343.88Zm-3.57,66.36a23.82,23.82,0,0,1-2.42,5.25,2.91,2.91,0,0,1,.84.52c0,.21.11.53.11.84a4.09,4.09,0,0,1-.84,1.79,53.15,53.15,0,0,1-17.12,10,4.87,4.87,0,0,1-1.15.32,1.86,1.86,0,0,1-1.58-.95,3.91,3.91,0,0,1-.52-2.41,1.45,1.45,0,0,1,.84-1.47,77.61,77.61,0,0,0-1.26-8.61c-1.26-5.78-2.31-10.61-3.15-14.6a2,2,0,0,1,.84-1.47c.42-.63.84-1.05,1.47-1.05s1.15.11,1.47.11a2.88,2.88,0,0,1,1.57,1.57,18.47,18.47,0,0,0,.42,2c1.89-.21,4.52-.42,7.88-.53a33.24,33.24,0,0,1,8.82,1.26c2.94,1.05,4.41,2.31,4.41,3.68A14.12,14.12,0,0,1,556.9,410.24Zm-16,11.65c.84-.42,1.68-.84,2.41-1.15a28.55,28.55,0,0,0,6.41-7c1.68-2.94,2.62-4.72,2.62-5.35-1.57-1.26-4.2-1.89-7.87-1.89-2.21,0-4.62.1-7.25.1.21,1.47.53,3.05.74,4.83q.94,7.41,1.26,11C539.89,422.21,540.41,422.1,540.94,421.89ZM575.8,445c-.11,1.79-.21,3.47-.21,5-.42,1.58-1.16,2.42-2.31,2.42-1.47,0-2.1-.84-2.1-2.42,0-2.31,0-5.35.1-9.24,0-5.56.11-9.13.11-10.81,0-6.09-.11-10.92-.11-14.6A138,138,0,0,0,570,399.84a2.94,2.94,0,0,1,1.26-2.41,3.53,3.53,0,0,1,1.58-.32,2,2,0,0,1,1.68.95,3.56,3.56,0,0,1,.84,2.1c.1,3.78.21,8.5.42,14a8.81,8.81,0,0,0,.63-1.05q3.15-2.83,5.67-5.35a36.71,36.71,0,0,0,8.61-17.22c-7.35,1.68-14.7,3.67-22.05,5.88a15.63,15.63,0,0,1-3.36.63c-1.37-.32-2-1.26-2-2.84a1.85,1.85,0,0,1,1.16-1.68,51.49,51.49,0,0,1,8.71-2.73c9.87-2.62,16.28-4,19.22-4q3.47,0,3.46,4.1a17.71,17.71,0,0,1-.94,4.3A47.46,47.46,0,0,1,590.5,404a54.35,54.35,0,0,1-10.4,11.76,3.57,3.57,0,0,1-2.52,1.47c-.94,0-1.57-.31-1.78-.94,0,4.3.1,8.92.1,13.86C575.9,433.55,575.8,438.48,575.8,445Z"/><path d="M679.33,351.33c4-2,6.82-3,8.5-3a2.87,2.87,0,0,1,3,3.25c0,1.68-1.37,5.15-4.1,10.19a303.58,303.58,0,0,1-18.9,29.4,26.19,26.19,0,0,1,4.52,3.15,5.54,5.54,0,0,1,.52,2.41,2.21,2.21,0,0,1-1.15,1.89h-.32a10.2,10.2,0,0,1-3.57-1.26c-1.26-.42-2.41-.94-3.46-1.36-5.88,8-12.5,16.48-19.64,25.3-3.57,4.83-7.35,9.45-11.23,13.76A3.26,3.26,0,0,1,631,436.7a1.8,1.8,0,0,1-1.89-2,2.37,2.37,0,0,1,.31-1.15c12.18-14.91,22.26-28,30.45-39.38-3-1.05-5.67-2.1-7.87-2.94-4.2-1.47-8.3-2.83-12.08-4.2-1.05-.42-1.47-1.36-1.47-3a2.7,2.7,0,0,1,2.84-2.42c2.62,0,6.4.95,11.44,2.84,3.47,1.26,7,2.73,10.82,4.51,9.45-13.44,15.85-24.36,19.32-32.76-6.83,3.57-12.08,5.36-15.86,5.36h-4.3c-1.68-.42-3.15-2.63-4.31-6.83a12.86,12.86,0,0,1-.52-4.09,5.09,5.09,0,0,1,.63-2.21,2.44,2.44,0,0,1,2.2-.94,3.62,3.62,0,0,1,1.79.52,17.75,17.75,0,0,1,1.57,5.15c.21,1.78.63,2.73,1.26,2.73C667.36,355.74,672,354.27,679.33,351.33Zm19.95,81.38a2.06,2.06,0,0,1,1.78.94,3.71,3.71,0,0,1,.42,1.16,3.37,3.37,0,0,1-1.05,2.31c-4.2,2.2-11.13,4.51-20.89,6.82a87.75,87.75,0,0,1-9.87,1.26h-.21c-.42,1.26-1.16,1.89-2.1,1.89-1.47,0-2.21-.73-2.21-2.1a5.84,5.84,0,0,1,.32-1.78c0-1.26.1-2.31.1-3.15a162.07,162.07,0,0,0-1.78-20.69c-.42-3.36-.84-6.4-1.37-9.24a6.15,6.15,0,0,1-.52-2.2,2.77,2.77,0,0,1,1.36-2.31,3,3,0,0,1,1.79-.53c1.26,0,2.1.74,2.62,2.21a2.9,2.9,0,0,0,.32,1.36c1.47-.63,3-1.26,4.93-1.89a72.66,72.66,0,0,1,17.85-2.1c4.41,0,7.56.63,9.66,1.79,3.15,1.68,4.73,4.51,4.73,8.61a35.07,35.07,0,0,1-4.52,15.43,12,12,0,0,1-1.68,2.21Zm-29.4-8.19c.42,5.88.63,10.18.63,13.33,0,.84-.11,1.58-.11,2.21,2.52-.32,5.36-.74,8.3-1.16A94.85,94.85,0,0,0,691,435.65v-.11c0-.31.32-.84,1.16-1.57,5.46-8.4,8.19-14.6,8.19-18.69-.42-3.57-3.57-5.36-9.24-5.36a35.17,35.17,0,0,0-7.35,1.05,30.31,30.31,0,0,0-8.4,1.58c-3.36.84-5.46,1.36-6.41,1.57Q669.56,418.85,669.88,424.52Z"/><path d="M739.07,399.53a32.65,32.65,0,0,1-1.68,4.83,7,7,0,0,1-1,2.2,2.45,2.45,0,0,1-2.2.95c-1,0-1.47-.63-1.47-1.68a9.35,9.35,0,0,1,.52-2.42,36.56,36.56,0,0,0,1.26-5.46,30.56,30.56,0,0,0,.32-4.2,43.63,43.63,0,0,0-.84-9.24,8.71,8.71,0,0,1-.63-2.83,2.93,2.93,0,0,1,.84-2.21,2.8,2.8,0,0,1,1.57-.63,2.48,2.48,0,0,1,1.68.74,7.63,7.63,0,0,1,1.26,1.68,48.6,48.6,0,0,1,1.16,11.34A46.12,46.12,0,0,1,739.07,399.53Zm12.81,35.17c-.21,2.73-.42,5.36-.42,7.67-.42,1.89-1.36,2.94-2.83,2.94-1.68,0-2.42-1.05-2.42-2.94,0-3.57,0-8.19.11-14,.21-8.08.31-13.33.31-15.85,0-9.35-.1-16.8-.21-22.26a194,194,0,0,0-2.2-23.63,3,3,0,0,1,1.26-2.52,5.3,5.3,0,0,1,1.78-.31,2.59,2.59,0,0,1,1.79.84,5.08,5.08,0,0,1,.84,2.41c.52,6,1.15,13.34,1.89,22.16,0,2.2.1,4.41.1,6.61l.21-.1a24.35,24.35,0,0,0,4-1.37,73.18,73.18,0,0,0,7.77-3.25c1.26-.53,2.21-.84,2.84-1.05.42,0,.94-.11,1.47-.11a1.89,1.89,0,0,1,1.57.74c0,.42.11.73.11,1.15a4.63,4.63,0,0,1-1.47,2.52,23.86,23.86,0,0,1-5.67,3.47,35.2,35.2,0,0,1-8.09,3,6.24,6.24,0,0,1-2.2.53c-.21,0-.42,0-.42-.11v11.45C752,417.9,751.88,425.25,751.88,434.7Zm49.88-55.54a43.3,43.3,0,0,1-12.18,1.78,13.86,13.86,0,0,1-9-2.83,11.77,11.77,0,0,1-4.94-9.56c-1.26.32-2.41.63-3.46.84a34,34,0,0,1-4.41.63,1.78,1.78,0,0,1-1.26-.84A1.34,1.34,0,0,1,766,368a2.81,2.81,0,0,1,.11-.95c0-.42.31-.84.94-1.15q2.84-1.57,9.45-2.84a13.36,13.36,0,0,1,.53-1.89c.63-2.31,1.15-4.41,1.78-6.3a19.93,19.93,0,0,0,.32-3.25c0-1-.11-2-.21-3,.52-1.47,1.36-2.2,2.62-2.2a2.38,2.38,0,0,1,2.31,1.36,5,5,0,0,1,.32,2,31.4,31.4,0,0,1-.42,4.3,55.06,55.06,0,0,1-1.68,7.25,2.81,2.81,0,0,0-.32,1.05c3.26-.42,7.14-1.16,11.55-2a23.63,23.63,0,0,0,.42-2.94V356a6.41,6.41,0,0,0-.94-3.25l-1-2.21a8.52,8.52,0,0,1-2.1.32c-1.47,0-2.2-.74-2.2-2.31,0-.84.52-1.47,1.57-2a95.15,95.15,0,0,1,11.66-.63,24.59,24.59,0,0,1,8.08,1.26,7.21,7.21,0,0,1,4.94,7.35,7.59,7.59,0,0,1-.21,1.68,20.34,20.34,0,0,0,2.93-.52c2.94-.63,4.83-.95,5.88-1.16.42,0,.74.11,1,.11a1.59,1.59,0,0,1,.74,1.26,1.69,1.69,0,0,1-.84,1.68c-2.1,1.47-5.56,2.83-10.5,4.09a45,45,0,0,1-3.25,10.08,1.67,1.67,0,0,0,.94-.31,9.05,9.05,0,0,1,2.94-1.05A1.64,1.64,0,0,1,815,372a2.4,2.4,0,0,1-1.58,2.41A40.62,40.62,0,0,1,801.76,379.16ZM787.9,431.24a58.57,58.57,0,0,1-9.66,1.47,2.54,2.54,0,0,1-1.79-.74,3.25,3.25,0,0,1-.73-1.89A1.53,1.53,0,0,1,777,428.4a1.39,1.39,0,0,0,.63-.1c-.21-3.26-.21-7.56-.21-12.92,0-3.46,0-6.72.1-9.66s.11-6,.32-9.34c0-1.68.1-3.47.1-5.46a5.55,5.55,0,0,1-.21-1.37,4.48,4.48,0,0,1-.1-1.15,1.67,1.67,0,0,1,.94-1.37,2.79,2.79,0,0,1,2.1-.94,3,3,0,0,1,2.31,1.47,12.1,12.1,0,0,1,.42,1.68,55.28,55.28,0,0,1,11.13-4c5.46-1.47,9.77-2.31,12.92-2.31,1.05,0,2,.84,2.94,2.31,1.47,3.15,2.31,8.82,2.31,16.9a131.26,131.26,0,0,1-.95,15.54c-.42,5.25-1.05,8.72-2,10.61a2.63,2.63,0,0,1-2.73,1.89c-1.58,0-2.31-.53-2.31-1.79a17.12,17.12,0,0,1,.52-3.15c-1.68.84-3.46,1.58-5.35,2.31a2.6,2.6,0,0,1,.42,1.16c-.11,1-.84,2.31-2.31,4-2.73,3.57-7.25,8.19-13.44,13.86a22,22,0,0,1-5,3.67,6.51,6.51,0,0,1-1.47.21c-1.26-.11-1.79-.84-1.79-2.1a1.88,1.88,0,0,1,.53-1.36,84.65,84.65,0,0,1,9-9.24c2.94-3.15,5.25-5.88,7-8A38,38,0,0,1,787.9,431.24Zm-3.68-64.37-3.78.63v.21c0,5.25,3.26,8.19,9.77,8.61a41.74,41.74,0,0,0,12.28-2.1,8.4,8.4,0,0,0,1.58-.42,6.17,6.17,0,0,1,.52-.84c1.37-4,2.52-7.35,3.36-10.18a7.06,7.06,0,0,1-2,.31c-3.15.53-6.51,1.05-9.87,1.58a3.72,3.72,0,0,1-.42,1.26,31,31,0,0,1-4.94,8.71c-.42.84-.94,1.37-1.68,1.37h-.73a1.27,1.27,0,0,1-1.16-1.37,2.75,2.75,0,0,1,.32-1.15,64,64,0,0,0,3.25-5.67,15.19,15.19,0,0,0,1-2.31C789.26,365.93,786.74,366.35,784.22,366.87Zm-2,46.31c2.94-.63,5.25-1.16,6.93-1.68,3.57-.95,8.08-2.21,13.44-3.78,2-.63,3.57-1.16,4.62-1.37h.31v-7a15.83,15.83,0,0,1-3.57,1.57c-4.83,1.68-9.34,3.05-13.33,4.1a54.67,54.67,0,0,1-8.4,1.78c0,.84-.11,2.94-.21,6.41Zm25.2-3.15a42.33,42.33,0,0,1-8.82,3.57,79.61,79.61,0,0,1-14.39,3.78,4.36,4.36,0,0,1-1.68.42c-.21,0-.42,0-.52-.11.1,3.36.21,6.62.21,10,1.57-.32,3.15-.63,4.83-.95a72.27,72.27,0,0,0,19.21-7.14C806.69,417,807.11,413.81,807.43,410Zm-22.26-9c12.6-3.36,19.74-5,21.52-5a1.1,1.1,0,0,1,.74.52c-.21-5.88-.84-8.92-1.79-9a86,86,0,0,0-13.44,3.89,31.28,31.28,0,0,1-8.82,2.62c-.21,1.26-.31,2.63-.42,4.2a23.5,23.5,0,0,0-.31,3.57A23.9,23.9,0,0,0,785.17,401Zm13.54-41.79c3-.42,6.51-1.16,10.4-2a24.61,24.61,0,0,0,.31-3.36c-1-2.62-3.78-4-8.08-4-1.68,0-3.15.11-4.52.21a8.84,8.84,0,0,1,1.37,4.94,31.35,31.35,0,0,1-.42,4.51Zm28.66,92.92a3.14,3.14,0,0,1-1.36.63,2.77,2.77,0,0,1-1.47-.31,54.92,54.92,0,0,1-5.15-2.84,94.93,94.93,0,0,1-12.49-8.82,10.42,10.42,0,0,1-3-2.62,1.58,1.58,0,0,1-.63-1.37,3.39,3.39,0,0,1,.63-1.89,4.88,4.88,0,0,1,1.47-1.26,4.48,4.48,0,0,1,1.15-.1,5,5,0,0,1,1.89.52q1.43.8,4.72,3.15a89.29,89.29,0,0,1,8.19,6.41c2.1,1.89,3.78,3.46,5.25,4.83.84.63,1.37,1.26,1.37,1.88A3.84,3.84,0,0,1,827.37,452.13Z"/><path d="M864.34,357.21a36.56,36.56,0,0,1-2.21,6.51c-1.57,3.57-3.57,8-6.09,13.23l-.63,1.26a3,3,0,0,1,1.58,1.26c1.57,3.15,2.52,8.09,2.73,14.81a233,233,0,0,1-2.42,34c-.52,4.51-1.15,8.61-1.89,12.39a2.56,2.56,0,0,1-2.52,2.1c-1.47,0-2.1-.84-2.1-2.42,0-3.57.63-9.87,2.1-19.32a144.83,144.83,0,0,0,1.37-19.53v-7a48.94,48.94,0,0,0-1.37-11.13c-1.47,3-3,6-4.51,8.92-1.68,3.15-3.36,6.72-5.25,10.92a2.38,2.38,0,0,1-1.89,1.16c-1.26,0-2-.53-2-1.68a2.57,2.57,0,0,1,.84-1.89c.84-2,2-4.62,3.57-8q2.52-6.15,6.62-15.75c2.2-5.25,4.51-10.82,7-16.49.74-2,1.47-4.09,2.31-6.19l.95-1.89a6.91,6.91,0,0,1,2.73-.53c1.26.42,2,1.16,2,2.31A6.29,6.29,0,0,1,864.34,357.21ZM893.63,382c2.63.21,4,1.79,4,4.83,0,4.1-1,10.08-2.94,17.85a128.73,128.73,0,0,1-6.93,21.42,124.28,124.28,0,0,1-7.77,14.7,4.82,4.82,0,0,1-2.41,1c-1.05,0-1.68-.63-1.68-1.89a2.29,2.29,0,0,1,.52-1.47l6.2-14a12.07,12.07,0,0,0,1-2.31c-2.73-3.57-5.36-7.25-7.67-10.82a4.27,4.27,0,0,1-.73-1.89c0-1.78.63-2.83,2.1-3a2.63,2.63,0,0,1,1.89.84,43.51,43.51,0,0,1,6.51,9.24c.63-1.58,1.15-3.26,1.78-5a136.32,136.32,0,0,0,3.89-17.85,50.86,50.86,0,0,0,.63-6.83c-5.15,2.52-11.87,9.24-20.27,20.16a2.17,2.17,0,0,1-1.57.74,2.86,2.86,0,0,1-2-3.05c0-.21.21-.63.84-1.26,4-6.09,7.56-14.28,10.71-24.46a87.43,87.43,0,0,0,1.16-11.66c-1.26.42-2.52.74-3.57,1a19.72,19.72,0,0,1-4.83.63H871a2,2,0,0,1-1.89-2.2v-1.16a3.57,3.57,0,0,1,2.1-2.41,8.36,8.36,0,0,0,1.68.1,32.44,32.44,0,0,0,10.61-2,97.34,97.34,0,0,0,13.12-5.88,15.68,15.68,0,0,1,1.79-1.16,7.89,7.89,0,0,1,1.89.42c.84.63,1.26,1.05,1.26,1.47a2.06,2.06,0,0,1-.63,1.47,3.92,3.92,0,0,1-1.79,1.37,49.06,49.06,0,0,1-10.18,5.25c-1,.42-2.1.94-3.15,1.36a9.56,9.56,0,0,1,.31,2.42,56.8,56.8,0,0,1-2.2,15.64c-.84,2.31-1.79,4.41-2.73,6.41C886.18,384.72,890.38,382,893.63,382Zm15.86-7.87a62.3,62.3,0,0,1,1.68,11.44c.21,3.78.31,6.62.31,8.61s-.1,4.2-.21,6.2a19.82,19.82,0,0,1-1,4.72c-.42,1.89-1.26,2.73-2.73,2.73s-2-.73-2-2.31a23.94,23.94,0,0,1,.84-3.15c.1-2.31.21-4.3.21-5.77a108.7,108.7,0,0,0-1.16-13.65c-.31-2.1-.63-4.2-1-6.09a7.32,7.32,0,0,1-.42-2.21,2.56,2.56,0,0,1,1.26-2.1,2.88,2.88,0,0,1,1.79-.63C908.12,371.91,909,372.65,909.49,374.12Zm12.39,75.49a34.38,34.38,0,0,1-10.82-11.13,18.42,18.42,0,0,1-1.47-1.47c0-.63.84-.84,2.52-.84q3.46.31,10.4,8.51a7.39,7.39,0,0,0,.31-2.52c0-6.51-.21-14.7-.52-24.89q-.63-16.22-.64-33.7c0-7.14.11-14.91.32-23.42V350.07a19.05,19.05,0,0,0-.53-3.57,3.43,3.43,0,0,1,2.31-2.31h1.16c1.47.42,2.31,1.79,2.31,4.1v34.44c0,5.88,0,11.13.1,16,0,5,.11,11.23.53,18.37.42,13.86.63,24.05.63,31-.11,2.1-1,3.14-2.42,3.25A7.65,7.65,0,0,1,921.88,449.61Z"/></g></g></svg>