<svg xmlns="http://www.w3.org/2000/svg" viewBox="0 0 1098.54 430.22"><defs><style>.cls-1{fill:#f9f8f2;}</style></defs><title>資產 10</title><g id="圖層_2" data-name="圖層 2"><g id="圖層_1-2" data-name="圖層 1"><path class="cls-1" d="M0,215.11A547.23,547.23,0,0,0,43.75,430.22H1054.8A550.82,550.82,0,0,0,1054.8,0H43.74A547.41,547.41,0,0,0,0,215.11Z"/><path d="M244.21,163.19c-4,4.2-10.29,6.3-19.11,6.3q-18.27,0-18.27-22.68c0-6.3,1-14.8,3.36-25.72a187,187,0,0,1,7-25.52c1.36-3.78,2.94-5.77,4.72-5.77a2.72,2.72,0,0,1,3.05,3,58.7,58.7,0,0,1-2.1,7.56c-6.3,20.16-9.45,35.6-9.45,46.09,0,5.88.84,10,2.62,12.39s4.73,3.47,9.24,3.47a29.79,29.79,0,0,0,14.28-4,3.18,3.18,0,0,1,3.26-2.63c2.1,0,3.15,1.05,3.15,3.05A6,6,0,0,1,244.21,163.19Z"/><path d="M290.09,145a41.62,41.62,0,0,0-2.31,14,21.77,21.77,0,0,0,.53,5.25c.63,3.15,1.05,4.72,1.05,4.93,0,2-1.16,3.05-3.36,3.05s-3.26-1.79-3.57-5.15c-.21-1.78-.53-4.62-.95-8.5Q272.82,169,264.79,169a8.65,8.65,0,0,1-7.24-4,12,12,0,0,1-2.94-8.08c0-4.83,2.1-9.87,6.51-15.33a54.34,54.34,0,0,1,4.62-4.83c6.92-6.3,12.7-9.45,17.53-9.45a6.06,6.06,0,0,1,3.36,1.37,4.3,4.3,0,0,1,1.68,3.15,7.35,7.35,0,0,1-.32,1.46,19.28,19.28,0,0,1,1.26,7.14,4.82,4.82,0,0,1,1.26,2.74A10.78,10.78,0,0,1,290.09,145Zm-9.55-10.39c-1.37,0-3.57,1.16-6.51,3.36a38,38,0,0,0-6.62,6c-4.4,4.94-6.5,9.14-6.5,12.6,0,3.68,1.36,5.46,4.3,5.46,4,0,7.87-2.41,11.86-7.45s6.09-9.77,6.09-14.39C283.16,136.52,282.22,134.63,280.54,134.63Z"/><path d="M334.72,133.89a11.4,11.4,0,0,1-4.31,1.27,13.59,13.59,0,0,1-2.1-.63c-9,4.19-14.49,12.91-16.17,26.35-.94,7-2.1,10.6-3.46,10.6a3.64,3.64,0,0,1-2.94-2,6.61,6.61,0,0,1-1.26-3.89c.21-1,.63-2.83,1.15-5.46a53.65,53.65,0,0,0,.84-8.82,45.1,45.1,0,0,0-1.05-9.13,7.29,7.29,0,0,1-2.1-4.2,39.22,39.22,0,0,1-.73-6.82,4.24,4.24,0,0,1,.73-2.21c.42-.84.84-1.26,1.37-1.26,2.31,0,3.88,2,4.72,5.77.84,4,1.47,6.93,1.89,9a36.59,36.59,0,0,1,10-12q6-4.72,12.28-4.73a4.55,4.55,0,0,1,3.15,1.58,6.24,6.24,0,0,1,1.37,3.36C338.08,131.9,336.92,133,334.72,133.89Z"/><path d="M377.77,145a41.37,41.37,0,0,0-2.31,14,21.77,21.77,0,0,0,.52,5.25c.63,3.15,1,4.72,1,4.93,0,2-1.15,3.05-3.36,3.05s-3.25-1.79-3.57-5.15c-.21-1.78-.52-4.62-.94-8.5Q360.49,169,352.46,169a8.65,8.65,0,0,1-7.24-4,12,12,0,0,1-2.94-8.08c0-4.83,2.1-9.87,6.51-15.33a54.34,54.34,0,0,1,4.62-4.83c6.93-6.3,12.7-9.45,17.53-9.45a6,6,0,0,1,3.36,1.37A4.3,4.3,0,0,1,376,131.8a7.06,7.06,0,0,1-.31,1.46,19.28,19.28,0,0,1,1.26,7.14,4.82,4.82,0,0,1,1.26,2.74A10.78,10.78,0,0,1,377.77,145Zm-9.56-10.39c-1.36,0-3.57,1.16-6.51,3.36a37.57,37.57,0,0,0-6.61,6c-4.41,4.94-6.51,9.14-6.51,12.6,0,3.68,1.36,5.46,4.3,5.46,4,0,7.88-2.41,11.87-7.45s6.09-9.77,6.09-14.39C370.84,136.52,369.89,134.63,368.21,134.63Z"/><path d="M428.48,133.16c-.42.63-1.89,2.21-4.2,4.83-9.45,10.4-16.27,19.95-20.68,28.56-1.58,3-2.94,4.62-4.2,4.62-2,0-3.47-1.79-4.41-5.15a150.76,150.76,0,0,1-4.83-23.83c-.84-6.3-1.26-10-1.26-10.81a3.25,3.25,0,0,1,.94-2.31,3,3,0,0,1,2.1-.95c1.26,0,2.21.95,3.05,2.63.31,2.41.73,5.25,1.15,8.5.84,6.3,2,13.23,3.36,20.79,5.15-8.4,13.34-19,24.68-32,.1-2.84,1.15-4.31,3.15-4.31a3.21,3.21,0,0,1,3.56,3.57A9.92,9.92,0,0,1,428.48,133.16Z"/><path d="M467.44,171.06q-12.29,0-17.64-11.65a12.63,12.63,0,0,1-2.94.31c-3.68,0-6.62-.63-8.72-2-2.62-1.47-3.88-3-3.88-4.73q0-3.47,3.15-3.46a12,12,0,0,1,3.15,1.89,9.74,9.74,0,0,0,5.35,1.68,12.2,12.2,0,0,0,2-.11,25.28,25.28,0,0,1-.42-4.82,31,31,0,0,1,3.78-14.71c2.83-5.35,6.4-8.08,10.71-8.08,2.62,0,5.24,1.47,8,4.2a10.57,10.57,0,0,1,2.94,7.25c0,4.2-1.78,8.18-5.24,12.17A31.65,31.65,0,0,1,456,157.52c2.1,4.41,5.36,6.61,10,6.61a21.57,21.57,0,0,0,4.4-.52c1.9-.21,3.05-.32,3.57-.32a2.68,2.68,0,0,1,2.1,1.16,3.91,3.91,0,0,1,.95,2.41C477,169.59,473.73,171.06,467.44,171.06ZM465,133.89a5.56,5.56,0,0,0-3.46-1.46c-2.1,0-3.89,1.67-5.36,4.83a23.22,23.22,0,0,0-2.2,9.86,30.36,30.36,0,0,0,.31,4.2,25.6,25.6,0,0,0,8.72-6.09,11.06,11.06,0,0,0,3.67-7.87A5,5,0,0,0,465,133.89Z"/><path d="M500.19,100.19l-.73.63a137.4,137.4,0,0,0-3,17.64A150.79,150.79,0,0,0,495,138.2a272.47,272.47,0,0,0,1.46,32,1.39,1.39,0,0,1-1.57,1.58c-1.47,0-2.94-1.26-4.41-3.57a10.56,10.56,0,0,1-2.1-5.67c0-.42-.1-1.58-.1-3.68s-.11-3.15-.11-3.57a7.34,7.34,0,0,1,.95-3.88c-.42-4.2-.53-9.76-.53-16.59,0-13.33,2.2-27.72,6.83-43.15.42-1.37.94-2.1,1.78-2.1,1.05,0,2.31.73,4,2.2s2.41,2.94,2.41,4.2C503.55,97.67,502.4,99.14,500.19,100.19Z"/><path d="M290.51,306.41a4.56,4.56,0,0,1-3.36-1.68c-6.09-7.67-10.29-22.26-12.49-43.89l-2.84-25.09c-2.31,5.14-5.46,14.28-9.66,27.3-1,3.25-1.78,6-2.31,8.08-.31,1.36-.63,2.63-.94,3.88a2.79,2.79,0,0,1-2.73,1.89c-3.57,0-8.61-6.51-14.91-19.73-3.36-6.72-6.4-15.44-8.92-26.15a116.1,116.1,0,0,0-5.78,23.52,221.7,221.7,0,0,0-1.36,27.72c0,4.41-1.26,6.51-3.57,6.51-3,0-4.52-5.25-4.52-16a150.87,150.87,0,0,1,1.16-15.64,146.48,146.48,0,0,0,.94-14.91c0-.74-.1-1.79-.1-3.26s-.11-2.52-.11-3.36c0-2.1,1-3.15,2.84-3.15a3.8,3.8,0,0,1,2.94,1.58c2.2-6.83,4.09-11.24,5.77-13.34a3.24,3.24,0,0,1,2.84-1.47c1.68,0,2.94,2,3.88,6,4.62,19.74,10.29,33.8,17.12,42.21a288.8,288.8,0,0,1,13.22-36.65c1.68-3.67,3.26-5.56,4.73-5.56,2.52,0,4.3,3.36,5.25,10.08.63,4.83,1.57,11.23,2.62,19.42,1.26,11.44,2.21,18.27,2.63,20.47,1.36,8.19,3.36,14.6,6,19.32,1.47.42,2.52,1.68,3.36,3.68a19.5,19.5,0,0,0,1.05,2.31,8.64,8.64,0,0,1,.74,2.2C293.56,305.15,292.4,306.41,290.51,306.41Z"/><path d="M345.22,280.68c-.31.84-.73,2.1-1.36,3.78a17.37,17.37,0,0,1-5.88,7.67c-2.94,2.31-5.67,3.57-8.4,3.57a12.36,12.36,0,0,1-10.71-5.88A19.71,19.71,0,0,1,315,277.53a28.52,28.52,0,0,1,3.15-12.81c2.21-4.51,5-7.66,8.61-9.55a12.07,12.07,0,0,0,4.1-2.94,6.42,6.42,0,0,1,1.47-.21,13,13,0,0,1,2.31.63,18.6,18.6,0,0,1,8.82,7,19.74,19.74,0,0,1,3.36,10.92A27.39,27.39,0,0,1,345.22,280.68ZM336.51,262a8.27,8.27,0,0,1-4.2-1.05c-3.68.21-6.51,2.1-8.61,5.66a21.8,21.8,0,0,0-2.63,10.92,12.87,12.87,0,0,0,2.31,8,7,7,0,0,0,6.09,3.36c2.73,0,5.25-2,7.77-6a20.16,20.16,0,0,0,3.47-10.71C340.71,267.25,339.24,263.89,336.51,262Z"/><path d="M393.21,226.4a84.46,84.46,0,0,0-1.37,10.4,25.55,25.55,0,0,0-.21,4.41,9.19,9.19,0,0,1-1.89,5.88c-.94,11.86-1.36,19.73-1.36,23.51a146.45,146.45,0,0,0,2.52,27.51,29.2,29.2,0,0,1,.63,5.15,2.76,2.76,0,0,1-.95,2,3.59,3.59,0,0,1-2.1,1.05c-1.68,0-2.73-1.57-3.15-4.51a165.09,165.09,0,0,1-2.2-18.8,32.18,32.18,0,0,1-6.72,9.14c-3.36,3.25-6.62,4.93-9.77,4.93a9.81,9.81,0,0,1-7.87-3.25c-1.89-2.1-2.73-4.94-2.73-8.51,0-5.67,2.41-11.86,7.24-18.69s9.14-10.18,13.13-10.18c2.1,0,4.3,1.37,6.61,3.89,1.37-19.32,3.26-33.39,5.57-42.11.42-1.68,1.36-2.62,2.83-2.62,1.79,0,2.73,1,2.73,3.15C394.15,219.58,393.84,222.1,393.21,226.4Zm-15.54,37.28c-.84-.11-1.26-.21-1.47-.21-2.42,0-5.46,2.62-9,7.76-3.78,5.36-5.57,10-5.57,13.86,0,3.47,1.26,5.15,4,5.15,3.47,0,6.93-2.1,10.29-6.3a35.56,35.56,0,0,0,6.62-13.55A10.73,10.73,0,0,1,377.67,263.68Z"/><path d="M434,297.06q-12.29,0-17.64-11.65a12.63,12.63,0,0,1-2.94.31c-3.68,0-6.62-.63-8.72-2-2.62-1.47-3.88-3.05-3.88-4.73q0-3.47,3.15-3.46a12,12,0,0,1,3.15,1.89,9.74,9.74,0,0,0,5.35,1.68,12.2,12.2,0,0,0,2-.11,25.28,25.28,0,0,1-.42-4.82,31,31,0,0,1,3.78-14.71c2.83-5.35,6.4-8.08,10.71-8.08,2.62,0,5.24,1.47,8,4.2a10.61,10.61,0,0,1,2.94,7.25c0,4.2-1.78,8.18-5.24,12.17a31.65,31.65,0,0,1-11.66,8.51c2.1,4.41,5.36,6.61,10,6.61a21.57,21.57,0,0,0,4.41-.52c1.89-.21,3.05-.32,3.57-.32a2.69,2.69,0,0,1,2.1,1.16,3.91,3.91,0,0,1,.95,2.41C443.5,295.59,440.24,297.06,434,297.06Zm-2.42-37.17a5.56,5.56,0,0,0-3.46-1.46c-2.1,0-3.89,1.67-5.36,4.83a23.22,23.22,0,0,0-2.2,9.86,30.36,30.36,0,0,0,.31,4.2,25.6,25.6,0,0,0,8.72-6.09,11.06,11.06,0,0,0,3.67-7.87A5,5,0,0,0,431.53,259.89Z"/><path d="M466.7,226.19l-.73.63a135.67,135.67,0,0,0-3.05,17.64,149.29,149.29,0,0,0-1.47,19.74,270,270,0,0,0,1.47,32,1.39,1.39,0,0,1-1.57,1.58c-1.47,0-2.94-1.26-4.41-3.57a10.56,10.56,0,0,1-2.1-5.67c0-.42-.1-1.58-.1-3.68s-.11-3.15-.11-3.57a7.34,7.34,0,0,1,.95-3.88c-.42-4.2-.53-9.76-.53-16.59,0-13.33,2.2-27.72,6.82-43.15.42-1.37.95-2.1,1.79-2.1,1,0,2.31.73,4,2.2s2.41,2.94,2.41,4.2C470.06,223.67,468.91,225.14,466.7,226.19Z"/><path d="M560.47,206.35a2.7,2.7,0,0,1,.94,2.2,5.09,5.09,0,0,1-.63,2.21,19,19,0,0,1,3.78,2.41c5,3.36,12.92,8.4,23.63,15.33,5.46,3.57,10,6.41,13.33,8.61,1.16.84,2.1,1.58,2.94,2.21a6.71,6.71,0,0,1,.84,1.89c0,1.68-.73,2.41-2.1,2.41a1.93,1.93,0,0,1-.84-.21,75.19,75.19,0,0,1-9.45-5.35l-16.17-9.87c-5.25-3.15-10.71-6.83-16.48-11a14.33,14.33,0,0,1-2.1-1.47c-1.58,2.73-3.36,5.67-5.36,8.61a211.41,211.41,0,0,1-13.12,17.64,3.57,3.57,0,0,1,1.26-.42c5-1.36,10.08-2.94,14.91-4.72a150.73,150.73,0,0,0,16.27-6.72,1.41,1.41,0,0,1,1.37.84c0,.21.1.42.1.63a2.92,2.92,0,0,1-.94,2c-2,2.31-7.25,5.15-15.86,8.4q-6.93,2.52-13.23,4.73c-1.26.31-2.1.52-2.62.63a13.44,13.44,0,0,1-2.73.21,2.2,2.2,0,0,1-2-1.47c-3.36,4-6.93,7.87-10.6,11.65-2.94,2.94-5.46,5.36-7.67,7.24a2.85,2.85,0,0,1-1.89,1.05,1.6,1.6,0,0,1-1.78-1.78,3,3,0,0,1,.94-2.2q16.86-15.92,35.91-45.15c2-3.15,3.78-6.09,5.25-8.82.63-1.58,1.37-2.42,2.42-2.42A2.72,2.72,0,0,1,560.47,206.35ZM556.9,272.7a23.82,23.82,0,0,1-2.42,5.25,2.9,2.9,0,0,1,.84.53c0,.21.11.52.11.84a4,4,0,0,1-.84,1.78,44.48,44.48,0,0,1-7.35,5.36,45.26,45.26,0,0,1-9.77,4.62,4.66,4.66,0,0,1-1.15.31,1.85,1.85,0,0,1-1.58-.94,4,4,0,0,1-.52-2.42,1.46,1.46,0,0,1,.84-1.47A77.61,77.61,0,0,0,533.8,278c-1.26-5.77-2.31-10.6-3.15-14.59a2,2,0,0,1,.84-1.47c.42-.63.84-1.05,1.47-1.05s1.15.11,1.47.11a2.88,2.88,0,0,1,1.57,1.57,17.84,17.84,0,0,0,.42,2c1.89-.21,4.52-.42,7.88-.52a32.44,32.44,0,0,1,8.82,1.26c2.94,1.05,4.41,2.31,4.41,3.68A14.11,14.11,0,0,1,556.9,272.7Zm-16,11.66c.84-.42,1.68-.84,2.41-1.16a28.3,28.3,0,0,0,6.41-7c1.68-2.94,2.62-4.73,2.62-5.36-1.57-1.26-4.2-1.88-7.87-1.88-2.21,0-4.62.1-7.25.1.21,1.47.53,3,.74,4.83q.94,7.39,1.26,11C539.89,284.67,540.41,284.57,540.94,284.36Zm34.86,23.1c-.11,1.78-.21,3.46-.21,5-.42,1.57-1.16,2.41-2.31,2.41-1.47,0-2.1-.84-2.1-2.41,0-2.31,0-5.36.1-9.24,0-5.57.11-9.14.11-10.82,0-6.09-.11-10.92-.11-14.59A138,138,0,0,0,570,262.31a3,3,0,0,1,1.26-2.42,3.53,3.53,0,0,1,1.58-.31,2,2,0,0,1,1.68.95,3.56,3.56,0,0,1,.84,2.1c.1,3.77.21,8.5.42,14a9.7,9.7,0,0,0,.63-1q3.15-2.84,5.67-5.36A36.67,36.67,0,0,0,590.71,253c-7.35,1.68-14.7,3.67-22.05,5.87a15.63,15.63,0,0,1-3.36.63c-1.37-.31-2-1.25-2-2.83a1.85,1.85,0,0,1,1.16-1.68,51.49,51.49,0,0,1,8.71-2.73c9.87-2.62,16.28-4,19.22-4q3.47,0,3.46,4.1a17.71,17.71,0,0,1-.94,4.3,47.46,47.46,0,0,1-4.41,9.87,54.35,54.35,0,0,1-10.4,11.76,3.57,3.57,0,0,1-2.52,1.47c-.94,0-1.57-.32-1.78-.95,0,4.31.1,8.93.1,13.86C575.9,296,575.8,301,575.8,307.46Z"/><path d="M679.33,213.8c4-2,6.82-3,8.5-3a2.87,2.87,0,0,1,3,3.25c0,1.68-1.37,5.15-4.1,10.19a303.58,303.58,0,0,1-18.9,29.4,26.19,26.19,0,0,1,4.52,3.15,5.54,5.54,0,0,1,.52,2.41,2.22,2.22,0,0,1-1.15,1.89h-.32a10.2,10.2,0,0,1-3.57-1.26c-1.26-.42-2.41-1-3.46-1.36-5.88,8-12.5,16.48-19.64,25.3-3.57,4.83-7.35,9.45-11.23,13.75a3.26,3.26,0,0,1-2.52,1.68,1.79,1.79,0,0,1-1.89-2,2.4,2.4,0,0,1,.31-1.16c12.18-14.91,22.26-28,30.45-39.37-3-1-5.67-2.1-7.87-2.94-4.2-1.47-8.3-2.83-12.08-4.2-1.05-.42-1.47-1.36-1.47-3a2.7,2.7,0,0,1,2.84-2.42c2.62,0,6.4,1,11.44,2.84,3.47,1.26,7,2.73,10.82,4.51C673,238,679.43,227,682.9,218.63,676.07,222.2,670.82,224,667,224h-4.3c-1.68-.42-3.15-2.63-4.31-6.83a12.86,12.86,0,0,1-.52-4.09,5.09,5.09,0,0,1,.63-2.21,2.44,2.44,0,0,1,2.2-.94,3.62,3.62,0,0,1,1.79.52,17.75,17.75,0,0,1,1.57,5.15c.21,1.78.63,2.73,1.26,2.73C667.36,218.21,672,216.74,679.33,213.8Zm19.95,81.37a2.07,2.07,0,0,1,1.78.95,3.56,3.56,0,0,1,.42,1.15,3.37,3.37,0,0,1-1.05,2.31c-4.2,2.21-11.13,4.52-20.89,6.83a87.75,87.75,0,0,1-9.87,1.26h-.21c-.42,1.26-1.16,1.89-2.1,1.89a1.92,1.92,0,0,1-2.21-2.1,5.85,5.85,0,0,1,.32-1.79c0-1.26.1-2.31.1-3.15a161.93,161.93,0,0,0-1.78-20.68c-.42-3.36-.84-6.41-1.37-9.24a6.19,6.19,0,0,1-.52-2.21,2.75,2.75,0,0,1,1.36-2.3,3,3,0,0,1,1.79-.53c1.26,0,2.1.74,2.62,2.2a2.91,2.91,0,0,0,.32,1.37c1.47-.63,3-1.26,4.93-1.89a72.66,72.66,0,0,1,17.85-2.1c4.41,0,7.56.63,9.66,1.79,3.15,1.67,4.73,4.51,4.73,8.6A35.12,35.12,0,0,1,700.64,293a11.92,11.92,0,0,1-1.68,2.2ZM669.88,287c.42,5.88.63,10.19.63,13.34,0,.84-.11,1.57-.11,2.2,2.52-.31,5.36-.73,8.3-1.15A94.83,94.83,0,0,0,691,298.11V298c0-.32.32-.84,1.16-1.58,5.46-8.4,8.19-14.59,8.19-18.69-.42-3.56-3.57-5.35-9.24-5.35a35.17,35.17,0,0,0-7.35,1.05,30.29,30.29,0,0,0-8.4,1.57c-3.36.84-5.46,1.37-6.41,1.58Q669.56,281.32,669.88,287Z"/><path d="M739.07,262a32.52,32.52,0,0,1-1.68,4.82,7,7,0,0,1-1,2.21,2.44,2.44,0,0,1-2.2.94c-1,0-1.47-.63-1.47-1.67a9.35,9.35,0,0,1,.52-2.42,36.56,36.56,0,0,0,1.26-5.46,30.56,30.56,0,0,0,.32-4.2,43.63,43.63,0,0,0-.84-9.24,8.71,8.71,0,0,1-.63-2.83,2.93,2.93,0,0,1,.84-2.21,2.8,2.8,0,0,1,1.57-.63,2.48,2.48,0,0,1,1.68.74,7.63,7.63,0,0,1,1.26,1.68,48.6,48.6,0,0,1,1.16,11.34A46.12,46.12,0,0,1,739.07,262Zm12.81,35.17c-.21,2.73-.42,5.35-.42,7.66-.42,1.89-1.36,2.94-2.83,2.94-1.68,0-2.42-1-2.42-2.94,0-3.57,0-8.19.11-14,.21-8.09.31-13.34.31-15.86,0-9.34-.1-16.79-.21-22.25a194,194,0,0,0-2.2-23.63,3,3,0,0,1,1.26-2.52,5.3,5.3,0,0,1,1.78-.31,2.59,2.59,0,0,1,1.79.84,5.08,5.08,0,0,1,.84,2.41c.52,6,1.15,13.34,1.89,22.16,0,2.2.1,4.41.1,6.61l.21-.1a24.35,24.35,0,0,0,4-1.37,73.18,73.18,0,0,0,7.77-3.25c1.26-.53,2.21-.84,2.84-1,.42,0,.94-.11,1.47-.11a1.89,1.89,0,0,1,1.57.74c0,.42.11.73.11,1.15a4.63,4.63,0,0,1-1.47,2.52,24.18,24.18,0,0,1-5.67,3.47,35.2,35.2,0,0,1-8.09,3,6.24,6.24,0,0,1-2.2.53c-.21,0-.42,0-.42-.11v11.44C752,280.37,751.88,287.72,751.88,297.17Zm49.88-55.54a43.3,43.3,0,0,1-12.18,1.78,13.86,13.86,0,0,1-9-2.83,11.77,11.77,0,0,1-4.94-9.56c-1.26.32-2.41.63-3.46.84a34,34,0,0,1-4.41.63,1.78,1.78,0,0,1-1.26-.84,1.34,1.34,0,0,1-.53-1.15,2.81,2.81,0,0,1,.11-.95c0-.42.31-.84.94-1.15q2.84-1.58,9.45-2.84a13.36,13.36,0,0,1,.53-1.89c.63-2.31,1.15-4.41,1.78-6.3a19.93,19.93,0,0,0,.32-3.25c0-1.05-.11-2-.21-3.05.52-1.47,1.36-2.2,2.62-2.2a2.38,2.38,0,0,1,2.31,1.36,5,5,0,0,1,.32,2,31.4,31.4,0,0,1-.42,4.3,55.06,55.06,0,0,1-1.68,7.25,2.81,2.81,0,0,0-.32,1.05c3.26-.42,7.14-1.16,11.55-2a23.63,23.63,0,0,0,.42-2.94v-1.47a6.41,6.41,0,0,0-.94-3.25l-1-2.21a8.52,8.52,0,0,1-2.1.32c-1.47,0-2.2-.74-2.2-2.31,0-.84.52-1.47,1.57-2a95.15,95.15,0,0,1,11.66-.63,24.59,24.59,0,0,1,8.08,1.26,7.21,7.21,0,0,1,4.94,7.35,7.59,7.59,0,0,1-.21,1.68,20.49,20.49,0,0,0,2.94-.52c2.94-.63,4.83-1,5.88-1.16.42,0,.73.11,1,.11a1.58,1.58,0,0,1,.73,1.26,1.68,1.68,0,0,1-.84,1.68c-2.1,1.47-5.56,2.83-10.5,4.09a45,45,0,0,1-3.25,10.08,1.67,1.67,0,0,0,.94-.31,9.05,9.05,0,0,1,2.94-1.05,1.64,1.64,0,0,1,1.58,1.68,2.4,2.4,0,0,1-1.58,2.41A40.62,40.62,0,0,1,801.76,241.63ZM787.9,293.7a58.57,58.57,0,0,1-9.66,1.47,2.53,2.53,0,0,1-1.79-.73,3.28,3.28,0,0,1-.73-1.89,1.53,1.53,0,0,1,1.26-1.68,1.28,1.28,0,0,0,.63-.11c-.21-3.25-.21-7.56-.21-12.91,0-3.46,0-6.72.1-9.66s.11-6,.32-9.35c0-1.67.1-3.46.1-5.45a5.55,5.55,0,0,1-.21-1.37,4.48,4.48,0,0,1-.1-1.15,1.67,1.67,0,0,1,.94-1.37,2.79,2.79,0,0,1,2.1-.94A3,3,0,0,1,783,250a12.1,12.1,0,0,1,.42,1.68,55.28,55.28,0,0,1,11.13-4c5.46-1.47,9.77-2.31,12.92-2.31,1.05,0,2,.84,2.94,2.31,1.47,3.15,2.31,8.82,2.31,16.9a131.26,131.26,0,0,1-.95,15.54c-.42,5.25-1.05,8.71-2,10.6a2.63,2.63,0,0,1-2.73,1.89c-1.58,0-2.31-.52-2.31-1.78a16.86,16.86,0,0,1,.52-3.15c-1.68.84-3.46,1.57-5.35,2.31a2.57,2.57,0,0,1,.42,1.15c-.11,1.05-.84,2.31-2.31,4-2.73,3.57-7.25,8.19-13.44,13.86a21.77,21.77,0,0,1-5,3.68,6.51,6.51,0,0,1-1.47.21c-1.26-.11-1.79-.84-1.79-2.1a1.9,1.9,0,0,1,.53-1.37,85.57,85.57,0,0,1,9-9.24c2.94-3.15,5.25-5.88,7-8A38,38,0,0,1,787.9,293.7Zm-3.68-64.36-3.78.63v.21c0,5.25,3.26,8.19,9.77,8.61a41.74,41.74,0,0,0,12.28-2.1,8.4,8.4,0,0,0,1.58-.42,6.17,6.17,0,0,1,.52-.84c1.37-4,2.52-7.35,3.36-10.18a7.06,7.06,0,0,1-2,.31c-3.15.53-6.51,1.05-9.87,1.58a3.72,3.72,0,0,1-.42,1.26,31,31,0,0,1-4.94,8.71c-.42.84-.94,1.37-1.68,1.37h-.73a1.27,1.27,0,0,1-1.16-1.37,2.75,2.75,0,0,1,.32-1.15,64,64,0,0,0,3.25-5.67,15.19,15.19,0,0,0,1-2.31C789.26,228.4,786.74,228.82,784.22,229.34Zm-2,46.3c2.94-.63,5.25-1.15,6.93-1.67,3.57-1,8.08-2.21,13.44-3.79,2-.63,3.57-1.15,4.62-1.36h.31v-7a15.83,15.83,0,0,1-3.57,1.57c-4.83,1.68-9.34,3-13.33,4.1a54.67,54.67,0,0,1-8.4,1.78c0,.84-.11,2.94-.21,6.4Zm25.2-3.15a41.26,41.26,0,0,1-8.82,3.57,79.61,79.61,0,0,1-14.39,3.78,4.18,4.18,0,0,1-1.68.42.8.8,0,0,1-.52-.1c.1,3.36.21,6.61.21,10,1.57-.31,3.15-.63,4.83-.94a72.62,72.62,0,0,0,19.21-7.14C806.69,279.42,807.11,276.27,807.43,272.49Zm-22.26-9c12.6-3.37,19.74-5,21.52-5a1.1,1.1,0,0,1,.74.52c-.21-5.88-.84-8.92-1.79-9a86,86,0,0,0-13.44,3.89,31.28,31.28,0,0,1-8.82,2.62c-.21,1.26-.31,2.62-.42,4.2a23.5,23.5,0,0,0-.31,3.57A23.9,23.9,0,0,0,785.17,263.47Zm13.54-41.79c3-.42,6.51-1.16,10.4-2a24.61,24.61,0,0,0,.31-3.36c-1-2.62-3.78-4-8.08-4-1.68,0-3.15.11-4.52.21a8.84,8.84,0,0,1,1.37,4.94,31.35,31.35,0,0,1-.42,4.51Zm28.67,92.92a3.37,3.37,0,0,1-1.37.63,2.79,2.79,0,0,1-1.47-.32,53.57,53.57,0,0,1-5.14-2.83,94.39,94.39,0,0,1-12.5-8.82,10.38,10.38,0,0,1-3-2.63,1.54,1.54,0,0,1-.63-1.36,3.39,3.39,0,0,1,.63-1.89,4.88,4.88,0,0,1,1.47-1.26,4.08,4.08,0,0,1,1.15-.11,5.07,5.07,0,0,1,1.89.53,55.86,55.86,0,0,1,4.73,3.15,89,89,0,0,1,8.19,6.4c2.1,1.89,3.78,3.47,5.25,4.83.84.63,1.36,1.26,1.36,1.89A3.94,3.94,0,0,1,827.38,314.6Z"/><path d="M864.34,219.68a36.56,36.56,0,0,1-2.21,6.51c-1.57,3.57-3.57,8-6.09,13.23l-.63,1.26a3,3,0,0,1,1.58,1.26c1.57,3.15,2.52,8.09,2.73,14.81a232.84,232.84,0,0,1-2.42,34c-.52,4.52-1.15,8.61-1.89,12.39a2.55,2.55,0,0,1-2.52,2.1c-1.47,0-2.1-.84-2.1-2.41,0-3.57.63-9.87,2.1-19.32A145.07,145.07,0,0,0,854.26,264v-7a48.94,48.94,0,0,0-1.37-11.13c-1.47,3-3,6-4.51,8.92-1.68,3.15-3.36,6.72-5.25,10.92a2.36,2.36,0,0,1-1.89,1.15c-1.26,0-2-.52-2-1.68a2.55,2.55,0,0,1,.84-1.88c.84-2,2-4.62,3.57-8q2.52-6.15,6.62-15.75c2.2-5.25,4.51-10.82,7-16.49.74-2,1.47-4.09,2.31-6.19l.95-1.89a6.91,6.91,0,0,1,2.73-.53c1.26.42,2,1.16,2,2.31A6.29,6.29,0,0,1,864.34,219.68Zm29.29,24.78c2.63.21,4,1.79,4,4.83,0,4.1-1,10.08-2.94,17.85a128.73,128.73,0,0,1-6.93,21.42,124.28,124.28,0,0,1-7.77,14.7,4.91,4.91,0,0,1-2.41,1.05c-1.05,0-1.68-.63-1.68-1.89a2.28,2.28,0,0,1,.52-1.47l6.2-14a12.07,12.07,0,0,0,1-2.31c-2.73-3.57-5.36-7.24-7.67-10.81a4.36,4.36,0,0,1-.73-1.89c0-1.79.63-2.83,2.1-3a2.66,2.66,0,0,1,1.89.83,43.77,43.77,0,0,1,6.51,9.24c.63-1.57,1.15-3.25,1.78-5a136.32,136.32,0,0,0,3.89-17.85,50.86,50.86,0,0,0,.63-6.83c-5.15,2.52-11.87,9.24-20.27,20.16a2.19,2.19,0,0,1-1.57.73,2.85,2.85,0,0,1-2-3c0-.21.21-.63.84-1.26,4-6.09,7.56-14.28,10.71-24.46a87.43,87.43,0,0,0,1.16-11.66c-1.26.42-2.52.74-3.57,1.05a19.72,19.72,0,0,1-4.83.63H871a2,2,0,0,1-1.89-2.2v-1.16a3.57,3.57,0,0,1,2.1-2.41,8.36,8.36,0,0,0,1.68.1,32.44,32.44,0,0,0,10.61-2,97.34,97.34,0,0,0,13.12-5.88,15.68,15.68,0,0,1,1.79-1.16,7.89,7.89,0,0,1,1.89.42c.84.63,1.26,1.05,1.26,1.47a2.06,2.06,0,0,1-.63,1.47,3.92,3.92,0,0,1-1.79,1.37,49.06,49.06,0,0,1-10.18,5.25c-1,.42-2.1.94-3.15,1.36a9.56,9.56,0,0,1,.31,2.42,56.8,56.8,0,0,1-2.2,15.64c-.84,2.31-1.79,4.41-2.73,6.41C886.18,247.19,890.38,244.46,893.63,244.46Zm15.86-7.87A62.3,62.3,0,0,1,911.17,248c.21,3.78.31,6.62.31,8.61s-.1,4.2-.21,6.2a19.94,19.94,0,0,1-1,4.72c-.42,1.89-1.26,2.73-2.73,2.73s-2-.74-2-2.31a23.54,23.54,0,0,1,.84-3.15c.1-2.31.21-4.3.21-5.78a108.71,108.71,0,0,0-1.16-13.64c-.31-2.1-.63-4.2-1-6.09a7.32,7.32,0,0,1-.42-2.21,2.56,2.56,0,0,1,1.26-2.1,2.88,2.88,0,0,1,1.79-.63C908.12,234.38,909,235.12,909.49,236.59Zm12.39,75.49A34.48,34.48,0,0,1,911.06,301a20.25,20.25,0,0,1-1.47-1.47c0-.63.84-.84,2.52-.84q3.46.32,10.4,8.5a7.31,7.31,0,0,0,.31-2.52c0-6.51-.21-14.7-.52-24.88q-.63-16.22-.63-33.7c0-7.14.1-14.91.31-23.42V212.54a19.74,19.74,0,0,0-.52-3.57,3.39,3.39,0,0,1,2.31-2.31h1.15c1.47.42,2.31,1.79,2.31,4.1V245.2c0,5.88,0,11.13.11,16,0,5,.1,11.23.52,18.37.42,13.86.63,24,.63,31-.1,2.1-.94,3.15-2.41,3.26A7.7,7.7,0,0,1,921.88,312.08Z"/></g></g></svg>