<svg xmlns="http://www.w3.org/2000/svg" viewBox="0 0 1098.54 430.22"><defs><style>.cls-1{fill:#f9f8f2;}</style></defs><title>資產 11</title><g id="圖層_2" data-name="圖層 2"><g id="圖層_1-2" data-name="圖層 1"><path class="cls-1" d="M0,215.11A547.23,547.23,0,0,0,43.75,430.22H1054.8A550.82,550.82,0,0,0,1054.8,0H43.74A547.41,547.41,0,0,0,0,215.11Z"/><path d="M439.86,179.46c-4,4.2-10.28,6.3-19.11,6.3q-18.25,0-18.26-22.67c0-6.3,1.05-14.81,3.36-25.73a186.89,186.89,0,0,1,7-25.51c1.36-3.78,2.94-5.78,4.73-5.78a2.72,2.72,0,0,1,3,3.05,58.7,58.7,0,0,1-2.1,7.56c-6.3,20.16-9.45,35.59-9.45,46.09,0,5.88.84,10,2.63,12.39s4.72,3.46,9.23,3.46a29.79,29.79,0,0,0,14.28-4A3.17,3.17,0,0,1,438.5,172c2.1,0,3.15,1.05,3.15,3A6,6,0,0,1,439.86,179.46Z"/><path d="M485.75,161.3a41.31,41.31,0,0,0-2.31,14,21.71,21.71,0,0,0,.52,5.25c.63,3.15,1.05,4.73,1.05,4.94,0,2-1.15,3-3.36,3s-3.25-1.78-3.57-5.14c-.21-1.79-.52-4.62-.94-8.51q-8.67,10.4-16.7,10.4a8.65,8.65,0,0,1-7.24-4,12,12,0,0,1-2.94-8.09c0-4.82,2.1-9.87,6.51-15.32a55.53,55.53,0,0,1,4.62-4.84c6.93-6.29,12.7-9.44,17.53-9.44a6,6,0,0,1,3.36,1.36,4.34,4.34,0,0,1,1.68,3.15,7.1,7.1,0,0,1-.31,1.47,19.24,19.24,0,0,1,1.26,7.14,4.77,4.77,0,0,1,1.26,2.73A10.65,10.65,0,0,1,485.75,161.3Zm-9.56-10.39c-1.36,0-3.57,1.15-6.51,3.36a37.18,37.18,0,0,0-6.61,6c-4.41,4.93-6.51,9.13-6.51,12.6,0,3.67,1.36,5.46,4.3,5.46,4,0,7.88-2.42,11.87-7.46s6.09-9.76,6.09-14.38C478.82,152.79,477.87,150.91,476.19,150.91Z"/><path d="M530.37,150.17a11.5,11.5,0,0,1-4.3,1.26,13.59,13.59,0,0,1-2.1-.63c-9,4.2-14.49,12.91-16.17,26.35-.95,7-2.1,10.61-3.47,10.61a3.67,3.67,0,0,1-2.94-2,6.58,6.58,0,0,1-1.26-3.88c.21-1,.63-2.84,1.16-5.46a54.76,54.76,0,0,0,.84-8.82,45.19,45.19,0,0,0-1.05-9.14,7.24,7.24,0,0,1-2.1-4.19,38.53,38.53,0,0,1-.74-6.83,4.15,4.15,0,0,1,.74-2.2c.42-.84.84-1.26,1.36-1.26,2.31,0,3.89,2,4.73,5.77.84,4,1.47,6.93,1.89,9a36.77,36.77,0,0,1,10-12q6-4.73,12.29-4.72a4.53,4.53,0,0,1,3.15,1.57,6.18,6.18,0,0,1,1.36,3.36C533.73,148.18,532.58,149.23,530.37,150.17Z"/><path d="M573.42,161.3a41.56,41.56,0,0,0-2.31,14,21.72,21.72,0,0,0,.53,5.25c.63,3.15,1.05,4.73,1.05,4.94,0,2-1.16,3-3.36,3s-3.26-1.78-3.57-5.14c-.21-1.79-.53-4.62-1-8.51q-8.65,10.4-16.69,10.4a8.67,8.67,0,0,1-7.25-4,12,12,0,0,1-2.94-8.09c0-4.82,2.1-9.87,6.51-15.32a57.14,57.14,0,0,1,4.62-4.84c6.93-6.29,12.71-9.44,17.54-9.44a6,6,0,0,1,3.36,1.36,4.34,4.34,0,0,1,1.68,3.15,7.39,7.39,0,0,1-.32,1.47,19.24,19.24,0,0,1,1.26,7.14,4.77,4.77,0,0,1,1.26,2.73A10.65,10.65,0,0,1,573.42,161.3Zm-9.55-10.39c-1.37,0-3.57,1.15-6.51,3.36a37.27,37.27,0,0,0-6.62,6c-4.41,4.93-6.51,9.13-6.51,12.6,0,3.67,1.37,5.46,4.31,5.46,4,0,7.87-2.42,11.86-7.46s6.09-9.76,6.09-14.38C566.49,152.79,565.55,150.91,563.87,150.91Z"/><path d="M624.13,149.44c-.42.63-1.89,2.2-4.2,4.83-9.45,10.39-16.27,19.94-20.68,28.55-1.58,3.05-2.94,4.62-4.2,4.62-2,0-3.47-1.78-4.41-5.14a150.92,150.92,0,0,1-4.83-23.84c-.84-6.29-1.26-10-1.26-10.81a3.29,3.29,0,0,1,.94-2.31,3,3,0,0,1,2.11-.94c1.26,0,2.2.94,3,2.62.31,2.42.73,5.25,1.15,8.51.84,6.3,2,13.22,3.37,20.78,5.14-8.39,13.33-19,24.67-32,.1-2.83,1.15-4.3,3.15-4.3a3.21,3.21,0,0,1,3.57,3.57C626.55,145.45,625.71,147.34,624.13,149.44Z"/><path d="M663.09,187.34q-12.29,0-17.64-11.66a12.61,12.61,0,0,1-2.94.32c-3.68,0-6.62-.63-8.72-2-2.62-1.47-3.88-3-3.88-4.72q0-3.47,3.15-3.47a11.9,11.9,0,0,1,3.15,1.9,9.72,9.72,0,0,0,5.35,1.67,13.4,13.4,0,0,0,2-.1,25.38,25.38,0,0,1-.42-4.83,31,31,0,0,1,3.78-14.7c2.83-5.35,6.4-8.08,10.71-8.08,2.62,0,5.25,1.47,8,4.2a10.61,10.61,0,0,1,2.94,7.24c0,4.2-1.79,8.19-5.25,12.18a31.63,31.63,0,0,1-11.66,8.5c2.1,4.41,5.36,6.62,10,6.62a21.91,21.91,0,0,0,4.41-.53c1.89-.21,3-.31,3.57-.31a2.71,2.71,0,0,1,2.1,1.15,3.92,3.92,0,0,1,.94,2.42C672.64,185.87,669.39,187.34,663.09,187.34Zm-2.42-37.17a5.58,5.58,0,0,0-3.46-1.47c-2.1,0-3.89,1.68-5.36,4.83a23.3,23.3,0,0,0-2.2,9.87,30.47,30.47,0,0,0,.31,4.2,25.74,25.74,0,0,0,8.72-6.09,11.08,11.08,0,0,0,3.67-7.88A5,5,0,0,0,660.67,150.17Z"/><path d="M695.85,116.47l-.74.63a137,137,0,0,0-3,17.64,149.29,149.29,0,0,0-1.47,19.74,270,270,0,0,0,1.47,32,1.39,1.39,0,0,1-1.58,1.57c-1.47,0-2.94-1.26-4.41-3.57a10.51,10.51,0,0,1-2.1-5.67c0-.42-.1-1.57-.1-3.67s-.11-3.15-.11-3.57a7.29,7.29,0,0,1,1-3.88c-.42-4.21-.53-9.77-.53-16.59,0-13.34,2.21-27.72,6.83-43.16.42-1.36.94-2.1,1.78-2.1,1.05,0,2.31.74,4,2.21s2.42,2.94,2.42,4.2C699.21,114,698.05,115.42,695.85,116.47Z"/><path d="M211.13,316.7c-.84,0-1.89-1.26-2.94-3.68-1.26-2.41-1.79-4.09-1.79-5.14a3.61,3.61,0,0,1,.42-1.58c-.63-2.52-1.68-6.19-2.94-11.13a72.36,72.36,0,0,0-19.63-2.41c-3.68,0-8.82.42-15.54,1.05a73,73,0,0,0-1.79,13.65,25.14,25.14,0,0,0,.32,3.78c-.63,1.68-1.68,2.52-3,2.52-2.74,0-4-2-4-5.78.21-1.57.53-3.67,1-6.4.21-1.47.63-3.89,1.26-7.14-2.52.42-5.56.94-9,1.36-2.31,0-3.36-.94-3.36-3,0-1.89,1.26-2.94,3.89-3.36,1.47-.21,4.72-.63,9.76-1.15,2.94-12.92,8.29-29.09,16.17-48.41,1.89-4.93,3.57-7.45,5-7.45,1.89,0,3.78,2.41,5.77,7,11,26.46,18.8,49.87,23.31,70.45.42,2.31.74,3.68.74,4.1C214.7,315.75,213.44,316.7,211.13,316.7Zm-14.6-45.46a261.47,261.47,0,0,0-11.55-29,329.51,329.51,0,0,0-14.9,45.25q10.54-.94,14.8-.94A94.25,94.25,0,0,1,202,288.35C200.1,282.05,198.21,276.38,196.53,271.24Z"/><path d="M258.38,264.94a65.48,65.48,0,0,1-15.86,13.75,49.23,49.23,0,0,1-11.44,5.15c0,.62,0,2.73.1,6.08s.11,5.57.11,6.2a12.79,12.79,0,0,1,1.36,5.88,43.72,43.72,0,0,0,1.16,10.08c-.42,2.1-1.58,3.25-3.36,3.25-3.57,0-5.25-7.45-5.25-22.36,0-7.14.63-17.74,2-31.81-2.62-.84-3.88-2.31-3.88-4.31,0-1.36,1.47-3.57,4.41-6.61,10.71-10.92,19.95-16.49,27.61-16.49a10.88,10.88,0,0,1,8.19,3.89,14.28,14.28,0,0,1,3.26,9.13C266.78,252.23,263.94,258.32,258.38,264.94Zm.84-22.47a5.53,5.53,0,0,0-4.2-1.79c-5,0-12.08,4.1-21.11,12.08-.63,6.09-1.47,14.28-2.31,24.57a64.33,64.33,0,0,0,19.53-13.23c6.51-6.51,9.77-12.39,9.77-17.75A5.48,5.48,0,0,0,259.22,242.47Z"/><path d="M290.61,252.76l-4.3,34.12c-1.16,9-1.68,14.8-1.68,17.22a30.06,30.06,0,0,0,.31,3.78,5.08,5.08,0,0,1,1.05,3,4.45,4.45,0,0,1-.84,2.42,3.11,3.11,0,0,1-2,1.05c-3.05,0-4.52-2.94-4.52-8.82A169.13,169.13,0,0,1,280.32,284l3.57-26.87c-1.78-1.05-2.62-2.21-2.62-3.68a33.93,33.93,0,0,1,2.83-12.28c1.89-4.62,3.68-7,5.25-7q3.15,0,3.15,3.78Q292.5,238.27,290.61,252.76Z"/><path d="M400.23,316.7c-.84,0-1.89-1.26-2.94-3.68-1.26-2.41-1.79-4.09-1.79-5.14a3.61,3.61,0,0,1,.42-1.58c-.63-2.52-1.68-6.19-2.94-11.13a72.36,72.36,0,0,0-19.63-2.41c-3.67,0-8.82.42-15.54,1.05A72.77,72.77,0,0,0,356,307.46a25,25,0,0,0,.31,3.78c-.63,1.68-1.68,2.52-3,2.52-2.73,0-4-2-4-5.78.21-1.57.52-3.67.94-6.4.21-1.47.63-3.89,1.26-7.14-2.52.42-5.56.94-9,1.36-2.31,0-3.36-.94-3.36-3,0-1.89,1.26-2.94,3.89-3.36,1.47-.21,4.72-.63,9.76-1.15q4.41-19.38,16.17-48.41c1.89-4.93,3.57-7.45,5-7.45,1.89,0,3.78,2.41,5.77,7,11,26.46,18.8,49.87,23.31,70.45.42,2.31.74,3.68.74,4.1C403.8,315.75,402.54,316.7,400.23,316.7Zm-14.6-45.46a259.52,259.52,0,0,0-11.55-29,330.87,330.87,0,0,0-14.9,45.25q10.54-.94,14.8-.94a94.25,94.25,0,0,1,17.11,1.78C389.2,282.05,387.31,276.38,385.63,271.24Z"/><path d="M453.78,277.33c-1.16,3.25-2.42,10.18-3.78,20.68a37.54,37.54,0,0,0-.42,4.72,25.29,25.29,0,0,0,.31,3.15c.21,1.68.42,2.63.42,2.84,0,2.73-1.36,4.2-3.88,4.2a4.27,4.27,0,0,1-2.42-.84,2.56,2.56,0,0,1-1.26-2.1,3.69,3.69,0,0,1,.74-2.21,108.2,108.2,0,0,1,1.89-17q-17.33,20.48-25.2,20.48a7.92,7.92,0,0,1-5.56-1.89,6.31,6.31,0,0,1-2.21-5c0-2,.63-6.41,2.1-13.13,1.37-7.14,2.1-12.18,2.1-15.11v-1.16a4.56,4.56,0,0,1-.1-1.05,3.89,3.89,0,0,1,.94-2.41,2.89,2.89,0,0,1,2.21-1.16c1.67,0,2.62,1.89,2.62,5.67,0,2.31-1,9.13-3,20.47a41.72,41.72,0,0,0-.74,5.36c0,1.47.53,2.2,1.58,2.2,4.09,0,9.34-3.67,15.64-11.23a142.21,142.21,0,0,0,13.75-19.95c.74-1.26,1.47-1.89,2.31-1.89,1.79,0,2.73,1.05,2.73,2.94A10.27,10.27,0,0,1,453.78,277.33Z"/><path d="M494.62,277.12h-1.47a3.93,3.93,0,0,1-2.41-1.47c-1.05,0-3.15,0-6.51-.11s-5.57-.1-6.2-.1c-2.41,10.6-3.67,16.16-3.67,16.69a90.22,90.22,0,0,0-2,17,3.91,3.91,0,0,1,1.47,3.15,2.89,2.89,0,0,1-1.15,2.2,4.12,4.12,0,0,1-2.31,1.05c-2.73,0-4-2.62-4-7.66a87.12,87.12,0,0,1,2-15.23l3.36-17c-3.36,0-5-1.16-5-3.68,0-2.2,2.21-3.36,6.62-3.36,1.36-6.19,3.78-15.33,7.14-27.51.52-1.78,1.47-2.73,2.73-2.73,2.31,0,3.46,1.26,3.46,3.68a5.94,5.94,0,0,1-.63,2.2,52.56,52.56,0,0,0-2.2,7.77c-1.68,6.51-3.05,12-4,16.49h4.3c2.52.1,4.1.1,4.94.1,5.25,0,7.87,1.58,7.87,4.52C496.93,274.39,496.09,275.65,494.62,277.12Z"/><path d="M537.88,314c-3.46,0-5.35-3.78-5.56-11.13l-.74-18.59c-10,6.72-16.59,13.23-20,19.64-.84,1.68-1.57,3.25-2.2,4.83-1.16,2.52-2,3.88-2.52,3.88a4.24,4.24,0,0,1-3.26-1.57,4.73,4.73,0,0,1-1.36-3.26,9.23,9.23,0,0,1,.21-1.89c0-1.05.1-1.68.1-1.89v-2.62c-.1-1.26-.1-2.21-.1-2.63A167.44,167.44,0,0,1,504.81,273c0-.63,1.36-8.61,4.09-23.83l2-11.76a30,30,0,0,1,.94-4.2c.32-.84.84-1.37,1.58-1.37a3.77,3.77,0,0,1,2.94,1.79,6.77,6.77,0,0,1,1.26,3.78c0,.31-.53,3-1.47,8.19-4.2,21-6.83,37.69-8.09,50.18a98,98,0,0,1,13.23-12.91c6.2-5,10.4-7.56,12.5-7.56a4.13,4.13,0,0,1,3.25,1.79,6.89,6.89,0,0,1,1.26,4c0,.73-.1,2.2-.31,4.4s-.21,4.1-.21,5.25c0,3.26.21,8.09.84,14.6.21,1.68.42,3.88.84,6.72C539.46,313.34,538.93,314,537.88,314Z"/><path d="M580.41,313.34q-12.3,0-17.64-11.66a12.61,12.61,0,0,1-2.94.32c-3.68,0-6.62-.63-8.72-2-2.62-1.47-3.88-3-3.88-4.72q0-3.46,3.15-3.47a11.9,11.9,0,0,1,3.15,1.9,9.72,9.72,0,0,0,5.35,1.67,13.4,13.4,0,0,0,2-.1,25.38,25.38,0,0,1-.42-4.83,31,31,0,0,1,3.78-14.7c2.83-5.35,6.4-8.08,10.71-8.08,2.62,0,5.25,1.47,8,4.2a10.61,10.61,0,0,1,2.94,7.24c0,4.2-1.78,8.19-5.24,12.18a31.71,31.71,0,0,1-11.66,8.5c2.1,4.41,5.36,6.62,10,6.62a21.76,21.76,0,0,0,4.41-.53c1.89-.21,3-.31,3.57-.31a2.71,2.71,0,0,1,2.1,1.15,3.94,3.94,0,0,1,1,2.42C590,311.87,586.7,313.34,580.41,313.34ZM578,276.17a5.6,5.6,0,0,0-3.46-1.47c-2.11,0-3.89,1.68-5.36,4.83a23.3,23.3,0,0,0-2.2,9.87,30.47,30.47,0,0,0,.31,4.2,25.6,25.6,0,0,0,8.71-6.09,11.05,11.05,0,0,0,3.68-7.88A5,5,0,0,0,578,276.17Z"/><path d="M634,296.64c-.42,3.68-.84,8.4-1.47,14.07-.21,1.05-.63,1.68-1.47,1.68a4,4,0,0,1-3-1.47,5.09,5.09,0,0,1-1.26-3.25c.1-1.47.31-3.78.73-6.72l1.79-17.74c-10,7.13-16.91,14.48-20.69,22-.63,1.47-1.15,2.84-1.78,4.2s-1.26,2.31-1.68,2.31c-2.1,0-3.46-1.26-4.31-3.78-1.26-3.78-1.89-8.61-1.89-14.7,0-6.4,1-15,3.36-25.82.21-1,.63-1.68,1.47-1.68a4.72,4.72,0,0,1,3.26,1.68,6.19,6.19,0,0,1,1.26,3.67c-.21,1.05-.53,2.21-.84,3.68A104.57,104.57,0,0,0,605,298.43c8.3-10.81,16.7-18.8,25.31-23.94a5.47,5.47,0,0,1,3.25,1.47,4.81,4.81,0,0,1,1.47,3.15C635,283.84,634.58,289.71,634,296.64Z"/><path d="M677.32,277.12h-1.47a3.92,3.92,0,0,1-2.42-1.47c-1,0-3.15,0-6.51-.11s-5.56-.1-6.19-.1c-2.42,10.6-3.68,16.16-3.68,16.69a90.14,90.14,0,0,0-2,17,3.94,3.94,0,0,1,1.47,3.15,2.88,2.88,0,0,1-1.16,2.2,4.09,4.09,0,0,1-2.31,1.05c-2.73,0-4-2.62-4-7.66a86.4,86.4,0,0,1,2-15.23l3.36-17c-3.36,0-5-1.16-5-3.68,0-2.2,2.2-3.36,6.61-3.36,1.37-6.19,3.78-15.33,7.14-27.51.53-1.78,1.47-2.73,2.73-2.73,2.31,0,3.47,1.26,3.47,3.68a5.94,5.94,0,0,1-.63,2.2A52.26,52.26,0,0,0,666.5,252c-1.68,6.51-3,12-4,16.49h4.31c2.52.1,4.09.1,4.93.1,5.25,0,7.88,1.58,7.88,4.52C679.63,274.39,678.79,275.65,677.32,277.12Z"/><path d="M696.74,282.68c-2.41,9.87-3.57,17.53-3.57,23a7.13,7.13,0,0,1,2.1,4.83c0,1.47-.73,2.21-2,2.21-1.68,0-3.15-1.37-4.52-4a17.9,17.9,0,0,1-1.57-8.09c0-2.73,1.36-11.23,4.3-25.72a20.6,20.6,0,0,1-.31-2.41,2.81,2.81,0,0,1,1.57-2.42c3.89.21,5.88,2.1,5.88,5.46C698.11,277.64,697.48,280,696.74,282.68Zm4.1-40.42c-4.1-.74-6.09-2.94-6.09-6.62,0-.63-.11-1.26-.11-2,.21-2.31,1.68-3.89,4.41-4.83,3.47.42,5.25,2.73,5.25,7.14Q704.3,241.95,700.84,242.26Z"/><path d="M738.53,307.25Q732.86,312,727.19,312a13.49,13.49,0,0,1-10.29-4.3,15.25,15.25,0,0,1-4-10.92,30.65,30.65,0,0,1,4-15.33,31,31,0,0,1,10.29-11.13,15.47,15.47,0,0,1,8.08-2.1c3.47,0,5.25,1.68,5.36,4.83-1,2.94-2.63,4.31-4.94,4.31-2.52,0-4.4-.42-5.66-1.37-7.35,5.25-10.92,11.87-10.92,19.74a11.58,11.58,0,0,0,1.78,6.82,5.94,5.94,0,0,0,5.25,2.63,11.44,11.44,0,0,0,7.24-2.21c.63-.73,1.79-1.89,3.47-3.46,1.26-1.37,2.31-2.1,3.15-2.1a2.71,2.71,0,0,1,2.1,1.26,3.89,3.89,0,0,1,.94,2.41C743,302.73,741.47,304.83,738.53,307.25Z"/><path d="M788.3,287.3a41.31,41.31,0,0,0-2.31,14,21.71,21.71,0,0,0,.52,5.25c.63,3.15,1,4.73,1,4.94,0,2-1.15,3-3.36,3s-3.25-1.78-3.57-5.14c-.21-1.79-.52-4.62-.94-8.51q-8.67,10.4-16.7,10.4a8.65,8.65,0,0,1-7.24-4,12,12,0,0,1-2.94-8.09c0-4.82,2.1-9.87,6.51-15.32a55.53,55.53,0,0,1,4.62-4.84c6.93-6.29,12.7-9.44,17.53-9.44a6,6,0,0,1,3.36,1.36,4.34,4.34,0,0,1,1.68,3.15,7.1,7.1,0,0,1-.31,1.47,19.24,19.24,0,0,1,1.26,7.14,4.77,4.77,0,0,1,1.26,2.73A10.65,10.65,0,0,1,788.3,287.3Zm-9.56-10.39c-1.36,0-3.57,1.15-6.51,3.36a37.18,37.18,0,0,0-6.61,6c-4.41,4.93-6.51,9.13-6.51,12.6,0,3.67,1.36,5.46,4.3,5.46,4,0,7.88-2.42,11.87-7.46s6.09-9.76,6.09-14.38C781.37,278.79,780.42,276.91,778.74,276.91Z"/><path d="M830.93,277.12h-1.47a3.92,3.92,0,0,1-2.42-1.47c-1,0-3.15,0-6.51-.11s-5.56-.1-6.19-.1c-2.42,10.6-3.68,16.16-3.68,16.69a90.14,90.14,0,0,0-2,17,3.94,3.94,0,0,1,1.47,3.15,2.88,2.88,0,0,1-1.16,2.2,4.09,4.09,0,0,1-2.31,1.05c-2.73,0-4-2.62-4-7.66a86.4,86.4,0,0,1,2-15.23l3.36-17c-3.36,0-5-1.16-5-3.68,0-2.2,2.2-3.36,6.61-3.36,1.37-6.19,3.78-15.33,7.14-27.51.53-1.78,1.47-2.73,2.73-2.73,2.31,0,3.47,1.26,3.47,3.68a5.94,5.94,0,0,1-.63,2.2,52.26,52.26,0,0,0-2.21,7.77c-1.68,6.51-3,12-4,16.49h4.31c2.52.1,4.09.1,4.93.1,5.25,0,7.88,1.58,7.88,4.52C833.24,274.39,832.4,275.65,830.93,277.12Z"/><path d="M850.35,282.68c-2.41,9.87-3.57,17.53-3.57,23a7.13,7.13,0,0,1,2.1,4.83c0,1.47-.73,2.21-2,2.21-1.68,0-3.15-1.37-4.52-4a17.9,17.9,0,0,1-1.57-8.09c0-2.73,1.36-11.23,4.3-25.72a20.6,20.6,0,0,1-.31-2.41,2.81,2.81,0,0,1,1.57-2.42c3.89.21,5.88,2.1,5.88,5.46C851.72,277.64,851.09,280,850.35,282.68Zm4.1-40.42c-4.1-.74-6.09-2.94-6.09-6.62,0-.63-.11-1.26-.11-2,.21-2.31,1.68-3.89,4.41-4.83,3.47.42,5.25,2.73,5.25,7.14Q857.91,241.95,854.45,242.26Z"/><path d="M896.76,297c-.32.84-.74,2.1-1.37,3.78a17.4,17.4,0,0,1-5.88,7.66c-2.93,2.31-5.67,3.57-8.39,3.57-4.42,0-8-1.89-10.71-5.88a19.68,19.68,0,0,1-3.89-12.28A28.46,28.46,0,0,1,869.67,281c2.2-4.51,5-7.66,8.61-9.55a12,12,0,0,0,4.09-2.94,6,6,0,0,1,1.47-.21,13,13,0,0,1,2.31.63,18.48,18.48,0,0,1,8.82,7,19.63,19.63,0,0,1,3.36,10.92A27.44,27.44,0,0,1,896.76,297ZM888,278.27a8.3,8.3,0,0,1-4.2-1c-3.67.21-6.51,2.1-8.6,5.67a21.77,21.77,0,0,0-2.63,10.92,12.89,12.89,0,0,0,2.31,8,7,7,0,0,0,6.09,3.36c2.73,0,5.25-2,7.77-6a20.09,20.09,0,0,0,3.46-10.7C892.24,283.52,890.77,280.16,888,278.27Z"/><path d="M945.16,296.64c-.42,3.68-.84,8.4-1.47,14.07-.21,1.05-.63,1.68-1.47,1.68a4,4,0,0,1-3-1.47,5.09,5.09,0,0,1-1.26-3.25c.1-1.47.31-3.78.73-6.72l1.79-17.74q-15,10.69-20.69,22c-.63,1.47-1.15,2.84-1.78,4.2s-1.26,2.31-1.68,2.31c-2.1,0-3.46-1.26-4.3-3.78-1.26-3.78-1.89-8.61-1.89-14.7,0-6.4,1-15,3.35-25.82.21-1,.63-1.68,1.47-1.68a4.72,4.72,0,0,1,3.26,1.68,6.19,6.19,0,0,1,1.26,3.67c-.21,1.05-.53,2.21-.84,3.68a104.59,104.59,0,0,0-2.41,23.62c8.29-10.81,16.69-18.8,25.3-23.94a5.47,5.47,0,0,1,3.25,1.47,4.81,4.81,0,0,1,1.47,3.15C946.21,283.84,945.79,289.71,945.16,296.64Z"/></g></g></svg>